# xmcd
#
# Track frame offsets:
#	150
#	33232
#	52415
#
# Disc length: 951 seconds
#
# Revision: 0
# Processed by: cddbd v1.5.1PL0 Copyright (c) Steve Scherf et al.
# Submitted via: MusicWizard 7.2.0
#
DISCID=2403b503
DTITLE=Various Artist - Echt Stark Steiermark
DYEAR=2005
DGENRE=Pop
TTITLE0=Wächter, Krainz, Resch - Echt Stark Steiermark
TTITLE1=Wächter, Resch - Echt Stark Steiermark Radio Edit
TTITLE2=Wächter, Resch - Echt Stark Steiermark Karaoke
EXTD=
EXTT0=
EXTT1=
EXTT2=
PLAYORDER=
